<svg height="512pt" viewBox="0 0 512.00027 512" width="512pt" xmlns="http://www.w3.org/2000/svg"><path d="m512 256c0 21.699219-2.695312 42.765625-7.785156 62.890625v.011719c-2.578125 10.226562-5.777344 20.207031-9.558594 29.902344v.011718c-20.953125 53.84375-59.601562 98.835938-108.796875 127.851563-.125.074219-.25.148437-.375.21875-5.035156 2.96875-10.1875 5.757812-15.453125 8.382812-10.824219 5.402344-22.101562 10.050781-33.730469 13.886719-10.625 3.5-21.542969 6.332031-32.726562 8.421875-15.410157 2.902344-31.3125 4.417969-47.574219 4.417969-3.957031 0-7.898438-.09375-11.816406-.269532-4.984375-.230468-9.925782-.597656-14.835938-1.109374-35.203125-3.636719-68.273437-14.398438-97.773437-30.835938-14.21875-7.929688-27.613281-17.175781-40.007813-27.574219-6.132812-5.140625-12.003906-10.550781-17.625-16.238281 0 0-.011718 0-.011718-.007812-45.703126-46.238282-73.92578175-109.808594-73.92578175-179.960938 0-141.386719 114.61328175-256 255.99609375-256 141.386719 0 256 114.613281 256 256zm0 0" fill="#f797bc"/><path d="m139.589844 327.0625c0 58.074219-3.007813 111.300781-8.015625 152.71875-14.21875-7.929688-27.613281-17.175781-40.007813-27.574219-6.132812-5.140625-12.003906-10.550781-17.625-16.238281 0 0-.011718 0-.011718-.007812-2.433594-32.652344-3.804688-69.675782-3.804688-108.898438 0-132.035156 15.550781-239.0625 34.734375-239.0625 19.171875 0 34.730469 107.027344 34.730469 239.0625zm0 0" fill="#f74570"/><path d="m89.269531 327.0625c0 45.890625.84375 88.753906 2.296875 125.144531-6.132812-5.140625-12.015625-10.5625-17.636718-16.246093-2.433594-32.652344-3.804688-69.675782-3.804688-108.898438 0-132.023438 15.550781-239.0625 34.734375-239.0625-8.609375 0-15.589844 107.039062-15.589844 239.0625zm0 0" fill="#dd2339"/><path d="m143.371094 227.046875 56.238281-80.34375c21.078125-30.113281 7.75-72.09375-26.890625-84.386719-19.875-7.050781-43.148438-12.4375-67.863281-12.4375-24.71875 0-47.992188 5.386719-67.863281 12.4375-34.640626 12.292969-47.972657 54.273438-26.894532 84.386719l56.242188 80.34375" fill="#ffe96e"/><path d="m62.335938 146.707031 25.238281 80.34375h-21.234375l-56.238282-80.34375c-21.078124-30.109375-7.75-72.09375 26.890626-84.382812 19.875-7.058594 43.152343-12.445313 67.863281-12.445313-11.089844 0-21.539063 5.386719-30.457031 12.445313-15.550782 12.289062-21.527344 54.273437-12.0625 84.382812zm0 0" fill="#ffb93b"/><path d="m139.585938 327.058594h-69.464844l-9.285156-105.640625h88.035156zm0 0" fill="#d1e6f2"/><path d="m89.269531 327.0625h-19.140625l-9.289062-105.644531h24.257812zm0 0" fill="#93bfd9"/><path d="m477.957031 274.195312c-13.757812 2.789063-27.511719 4.550782-41.269531 5.304688-24.019531 1.328125-48.023438-.449219-72.042969-5.304688-3.609375-60.355468-4.078125-120.707031-1.40625-181.0625.742188-16.925781 15.542969-29.929687 32.390625-28.105468 5.101563.550781 10.285156 1.402344 15.433594 2.527344 22.21875 4.855468 43.953125 14.765624 57.742188 27.277343 5.765624 5.234375 9.285156 12.496094 9.722656 20.273438 3.578125 62.589843 3.386718 93.050781-.570313 159.089843zm0 0" fill="#dd2339"/><path d="m477.957031 274.195312c-13.757812 2.789063-27.511719 4.550782-41.269531 5.304688-13.757812-.753906-27.515625-2.515625-41.28125-5.304688-3.609375-60.355468-4.082031-120.707031-1.417969-181.0625.507813-11.441406 7.441407-21.082031 17.074219-25.578124 22.21875 4.855468 43.957031 14.765624 57.746094 27.277343 5.765625 5.234375 9.285156 12.496094 9.722656 20.273438 3.574219 62.589843 3.382812 93.050781-.574219 159.089843zm0 0" fill="#f74570"/><path d="m494.65625 348.804688v.011718c-20.953125 53.84375-59.601562 98.835938-108.796875 127.851563-.125.074219-.25.148437-.375.21875-11.242187-1.167969-22.484375-2.882813-33.71875-5.160157-5.109375-85.210937-5.109375-170.402343 0-255.601562 11.359375-2.308594 22.738281-4.035156 34.105469-5.203125 34.992187-3.605469 69.976562-1.871094 104.96875 5.203125 2.644531 44.230469 3.917968 88.449219 3.816406 132.679688zm0 0" fill="#93bfd9"/><path d="m494.65625 348.816406c-20.953125 53.84375-59.601562 98.835938-108.796875 127.851563-5.117187-88.585938-5.117187-177.171875.011719-265.746094 34.992187-3.605469 69.976562-1.871094 104.96875 5.203125 2.644531 44.230469 3.917968 88.460938 3.816406 132.691406zm0 0" fill="#d1e6f2"/><path d="m504.214844 318.890625v.011719c-18.429688 72.984375-68.21875 133.484375-134.183594 166.367187-10.824219 5.402344-22.101562 10.050781-33.730469 13.886719-1.722656-70.144531-.480469-140.296875 3.722657-210.441406 11.335937-2.289063 22.671874-4.097656 34.019531-5.421875 42.839843-5.046875 85.691406-3.242188 128.554687 5.421875.605469 10.0625 1.136719 20.113281 1.617188 30.175781zm0 0" fill="#30a4c7"/><path d="m504.214844 318.890625c-18.429688 72.984375-68.21875 133.496094-134.183594 166.378906-1.171875-67.324219.167969-134.644531 4.011719-201.976562 42.839843-5.046875 85.691406-3.242188 128.554687 5.421875.605469 10.0625 1.136719 20.113281 1.617188 30.175781zm0 0" fill="#80ceed"/><path d="m453.160156 188.75c-7.28125 0-13.183594-5.898438-13.183594-13.179688v-52.726562c0-7.28125 5.902344-13.183594 13.183594-13.183594 7.277344 0 13.179688 5.902344 13.179688 13.183594v52.726562c0 7.28125-5.902344 13.179688-13.179688 13.179688zm0 0" fill="#ff5c88"/><path d="m299.382812 97.292969c5.269532 0 9.539063-4.269531 9.539063-9.539063 0-5.269531-4.269531-9.539062-9.539063-9.539062h-23.398437v-16.96875h23.398437c5.269532 0 9.539063-4.269532 9.539063-9.539063 0-5.265625-4.269531-9.535156-9.539063-9.535156h-23.398437v-14.078125c0-5.265625-4.269531-9.535156-9.535156-9.535156-5.269531 0-9.539063 4.269531-9.539063 9.535156v14.078125h-23.398437c-5.265625 0-9.535157 4.269531-9.535157 9.539063 0 5.265624 4.269532 9.535156 9.535157 9.535156h23.398437v16.96875h-23.398437c-5.265625 0-9.535157 4.269531-9.535157 9.539062 0 5.269532 4.269532 9.539063 9.535157 9.539063h23.398437v16.96875h-23.398437c-5.265625 0-9.535157 4.269531-9.535157 9.535156 0 5.269531 4.269532 9.539063 9.535157 9.539063h23.398437v16.96875h-23.398437c-5.265625 0-9.535157 4.269531-9.535157 9.539062 0 5.265625 4.269532 9.535156 9.535157 9.535156h23.398437v16.96875h-23.398437c-5.265625 0-9.535157 4.269532-9.535157 9.539063 0 5.265625 4.269532 9.535156 9.535157 9.535156h23.398437v205.832031c0 5.265625 4.269532 9.535156 9.539063 9.535156s9.539062-4.269531 9.539062-9.535156v-205.835937h23.398438c5.265625 0 9.535156-4.269531 9.535156-9.535157 0-5.269531-4.269531-9.539062-9.535156-9.539062h-23.398438v-16.96875h23.398438c5.265625 0 9.535156-4.269531 9.535156-9.535156 0-5.269532-4.269531-9.539063-9.535156-9.539063h-23.398438v-16.96875h23.398438c5.265625 0 9.535156-4.269531 9.535156-9.539062s-4.269531-9.535157-9.535156-9.535157h-23.398438v-16.964843zm0 0" fill="#151a1c"/><path d="m303.574219 507.578125c-15.410157 2.902344-31.3125 4.417969-47.574219 4.417969-3.957031 0-7.898438-.09375-11.816406-.269532-4.984375-.230468-9.925782-.597656-14.835938-1.109374-.597656-48.273438-.023437-96.558594 1.722656-144.832032 4.933594-1.652344 9.875-2.96875 14.804688-3.917968 18.652344-3.65625 37.304688-2.339844 55.957031 3.917968 1.703125 47.257813 2.285157 94.53125 1.742188 141.792969zm0 0" fill="#ffb93b"/><path d="m303.574219 507.578125c-15.410157 2.902344-31.3125 4.417969-47.574219 4.417969-3.957031 0-7.898438-.09375-11.816406-.269532-.585938-49.957031-.019532-99.914062 1.691406-149.859374 18.652344-3.65625 37.304688-2.339844 55.957031 3.917968 1.703125 47.257813 2.285157 94.53125 1.742188 141.792969zm0 0" fill="#ffe96e"/></svg>